<?xml version="1.0" encoding="utf-8"?>
<!-- Generator: Adobe Illustrator 18.0.0, SVG Export Plug-In . SVG Version: 6.00 Build 0)  -->
<!DOCTYPE svg PUBLIC "-//W3C//DTD SVG 1.1//EN" "http://www.w3.org/Graphics/SVG/1.1/DTD/svg11.dtd">
<svg version="1.1" id="Ebene_1" xmlns="http://www.w3.org/2000/svg" xmlns:xlink="http://www.w3.org/1999/xlink" x="0px" y="0px"
	 viewBox="0 0 45 45" enable-background="new 0 0 45 45" xml:space="preserve">
<g>
	<g>
		<path fill-rule="evenodd" clip-rule="evenodd" fill="#FFFFFF" d="M22.5,12c0.2,0,0.3,0,0.5,0v0h19.4C38.6,4.9,31.1,0,22.5,0
			c-7.4,0-13.9,3.5-18,9l7.6,12.4C12.6,16.1,17.1,12,22.5,12z M22.5,31c4.7,0,8.5-3.8,8.5-8.5S27.2,14,22.5,14S14,17.8,14,22.5
			c0,1.1,0.2,2.1,0.6,3.1l0.4,0.7l-0.1,0C16.3,29.1,19.2,31,22.5,31z M43.3,14H28.6c2.6,1.9,4.4,5,4.4,8.5c0,2.4-0.8,4.6-2.2,6.4
			L31,29l-9.9,16c0.5,0,0.9,0,1.4,0C34.9,45,45,34.9,45,22.5C45,19.5,44.4,16.6,43.3,14z M22.5,33c-4.5,0-8.3-2.8-9.8-6.8L3.3,10.8
			C1.2,14.2,0,18.2,0,22.5C0,33.7,8.2,43,18.9,44.7l7.5-12.5C25.2,32.7,23.9,33,22.5,33z"/>
	</g>
</g>
</svg>
