<?xml version="1.0" encoding="utf-8"?>
<!-- Generator: Adobe Illustrator 18.0.0, SVG Export Plug-In . SVG Version: 6.00 Build 0)  -->
<!DOCTYPE svg PUBLIC "-//W3C//DTD SVG 1.1//EN" "http://www.w3.org/Graphics/SVG/1.1/DTD/svg11.dtd">
<svg version="1.1" xmlns="http://www.w3.org/2000/svg" xmlns:xlink="http://www.w3.org/1999/xlink" x="0px" y="0px"
	 viewBox="0 0 576 268" enable-background="new 0 0 576 268" xml:space="preserve">
<g id="Layer_1">
	<g>
		<path fill="#FFFFFF" d="M260.4,111c3.9,1.7,4.2,3,1.1,8.8c-3.1,6-3.9,6.3-7.7,4.8c-4.8-2.1-11-3.6-15-3.6
			c-6.5,0-10.9,2.3-10.9,5.9c0,11.7,37.4,5.4,37.4,30.4c0,12.6-10.8,21-27,21c-8.5,0-19-2.8-26.3-6.5c-3.6-1.8-3.8-2.9-0.7-8.9
			c2.7-5.3,3.6-5.8,7.5-4.2c6.2,2.7,14,4.8,19.3,4.8c6,0,9.9-2.4,9.9-6c0-11.4-38.1-6-38.1-30.2c0-12.9,10.7-21.5,26.8-21.5
			C244.2,105.7,253.8,108,260.4,111z"/>
		<path fill="#FFFFFF" d="M290.6,81.3v93.2c0,1.4-1.5,2.9-3.6,2.9h-9.8c-2.1,0-3.6-1.5-3.6-2.9V81.3c0-4.6,1.3-5,8.5-5
			C290.3,76.3,290.6,76.8,290.6,81.3z"/>
		<path fill="#FFFFFF" d="M360.3,133.7v40.1c0,2.1-1.5,3.6-3.6,3.6H347c-2.2,0-3.8-1.6-3.6-3.8l0.1-4.3c-5.3,5.8-12.8,8.9-20.3,8.9
			c-14.6,0-24.4-8.5-24.4-21.1c0-13.4,11.1-22.4,27.7-22.5c6.3,0,12.1,1.1,16.8,3.1V133c0-7.4-5.8-11.8-15.7-11.8
			c-4.6,0-10.3,1.8-14.8,4.5c-3.5,2-4.3,1.8-8.1-3.8c-3.7-5.6-3.6-6.7,0-9c6.8-4.4,16.1-7.2,24.6-7.2
			C348.2,105.7,360.3,116.1,360.3,133.7z M315.1,157c0,4.8,4,8,10.2,8c7.4,0,14.1-3.6,18-9.6v-6.3c-3.9-1.5-8.7-2.3-12.9-2.3
			C321.2,146.7,315.1,151.1,315.1,157z"/>
		<path fill="#FFFFFF" d="M426.8,111.1c3.6,2.1,3.7,3.2-0.2,9.2c-3.7,5.7-4.3,6-8.2,4c-3-1.6-7.7-2.9-11.7-2.9
			c-12.3,0-20.5,8.1-20.5,20.3c0,12.7,8.2,21.2,20.5,21.2c4.3,0,9.6-1.6,13.1-3.6c3.6-2.1,4.3-1.9,8.1,3.6c3.4,5.1,3.3,6.3,0.3,8.5
			c-5.5,3.8-14.1,6.7-21.7,6.7c-22.7,0-37.9-14.6-37.9-36.4c0-21.7,15.2-36.1,38.1-36.1C413.5,105.7,421.6,108.1,426.8,111.1z"/>
		<path fill="#FFFFFF" d="M500.9,168.6c2.8,3.6,1.7,4.9-5.4,7.5c-7.2,2.6-8.2,2.5-10.8-0.9l-20.3-27.1l-9.1,8.8v17.6
			c0,1.4-1.5,2.9-3.6,2.9h-9.8c-2.1,0-3.6-1.5-3.6-2.9V81.3c0-4.6,1.3-5,8.5-5c8.2,0,8.5,0.6,8.5,5v53l27.8-26.7
			c3.1-2.9,4.8-2.7,10.2,0.9c6,3.9,6.5,5,3.6,7.8l-20.7,20.2L500.9,168.6z"/>
	</g>
	<g>
		
			<rect x="113.1" y="131.4" transform="matrix(-0.3176 -0.9482 0.9482 -0.3176 27.2113 300.084)" fill="#FFFFFF" width="17" height="17.6"/>
		<g>
			
				<rect x="113.1" y="131.4" transform="matrix(-0.3176 -0.9482 0.9482 -0.3176 27.2115 300.084)" fill="#FFFFFF" width="17" height="17.6"/>
			<path fill="#FFFFFF" d="M178.9,123.1c-12.9-43-31.5-53-74.5-40.1c-43,12.9-53,31.5-40.1,74.5c12.9,43,31.5,53,74.5,40.1
				C181.7,184.7,191.8,166,178.9,123.1z M157.1,151l-8.1,2.7l2.8,8.4c1.1,3.4-0.7,7.1-4.1,8.2c-0.7,0.2-1.5,0.4-2.2,0.3
				c-2.6-0.1-5.1-1.8-6-4.4l-2.8-8.4l-16.7,5.6l2.8,8.4c1.1,3.4-0.7,7.1-4.1,8.2c-0.7,0.2-1.5,0.4-2.2,0.3c-2.6-0.1-5.1-1.8-6-4.4
				l-2.8-8.4l-8.1,2.7c-0.7,0.2-1.5,0.4-2.2,0.3c-2.6-0.1-5.1-1.8-6-4.4c-1.1-3.4,0.7-7.1,4.1-8.2l8.1-2.7l-5.4-16.1l-8.1,2.7
				c-0.7,0.2-1.5,0.4-2.2,0.3c-2.6-0.1-5.1-1.8-6-4.4c-1.1-3.4,0.7-7.1,4.1-8.2l8.1-2.7l-2.8-8.4c-1.1-3.4,0.7-7.1,4.1-8.2
				c3.4-1.1,7.1,0.7,8.2,4.1l2.8,8.4l16.7-5.6l-2.8-8.4c-1.1-3.4,0.7-7.1,4.1-8.2c3.4-1.1,7.1,0.7,8.2,4.1l2.8,8.4l8.1-2.7
				c3.4-1.1,7.1,0.7,8.2,4.1c1.1,3.4-0.7,7.1-4.1,8.2l-8.1,2.7l5.4,16.1l8.1-2.7c3.4-1.1,7.1,0.7,8.2,4.1
				C162.4,146.1,160.5,149.8,157.1,151z"/>
		</g>
	</g>
</g>
<g id="Layer_3">
</g>
<g id="Layer_4">
</g>
<g id="Layer_2" display="none">
	<line display="inline" fill="none" stroke="#FF2C2C" stroke-miterlimit="10" x1="1135.7" y1="-193.8" x2="1666.4" y2="-193.8"/>
	<line display="inline" fill="none" stroke="#FF2C2C" stroke-miterlimit="10" x1="1138.7" y1="-117.8" x2="1669.4" y2="-117.8"/>
	
		<rect x="1163.9" y="-212.8" transform="matrix(0.9511 -0.309 0.309 0.9511 121.6153 364.7224)" display="inline" opacity="0.4" fill="#4DA6FF" width="96.6" height="22.6"/>
	
		<rect x="1198.9" y="-119.8" transform="matrix(0.9511 -0.309 0.309 0.9511 94.5897 380.0898)" display="inline" opacity="0.4" fill="#4DA6FF" width="96.6" height="22.6"/>
	
		<rect x="1169.9" y="-179.7" transform="matrix(0.9511 -0.309 0.309 0.9511 101.3479 358.0957)" display="inline" opacity="0.5" fill="#85C2FF" width="22.5" height="77.5"/>
	
		<rect x="1263.4" y="-214.7" transform="matrix(0.9511 -0.309 0.309 0.9511 116.7417 385.2748)" display="inline" opacity="0.5" fill="#85C2FF" width="22.5" height="77.5"/>
</g>
</svg>
