<?xml version="1.0" encoding="utf-8"?>
<!-- Generator: Adobe Illustrator 18.0.0, SVG Export Plug-In . SVG Version: 6.00 Build 0)  -->
<!DOCTYPE svg PUBLIC "-//W3C//DTD SVG 1.1//EN" "http://www.w3.org/Graphics/SVG/1.1/DTD/svg11.dtd">
<svg version="1.1" id="Ebene_1" xmlns="http://www.w3.org/2000/svg" xmlns:xlink="http://www.w3.org/1999/xlink" x="0px" y="0px"
	 viewBox="0 0 48 48" enable-background="new 0 0 48 48" xml:space="preserve">
<g>
	<g>
		<path fill-rule="evenodd" clip-rule="evenodd" fill="#FFFFFF" d="M24,0C10.7,0,0,10.7,0,24v20c0,3,0.9,4,4,4l20,0
			c13.3,0,24-10.7,24-24C48,10.7,37.3,0,24,0z M33.5,19.5L22.7,30.4c0,0.1-0.1,0.1-0.1,0.2c-0.3,0.3-0.7,0.4-1.1,0.4
			c-0.4,0-0.8-0.1-1.1-0.4c-0.1-0.1-0.1-0.1-0.1-0.2l-5.9-5.9c-0.6-0.6-0.6-1.5,0-2.1c0.6-0.6,1.5-0.6,2.1,0l5,5l10-10
			c0.6-0.6,1.5-0.6,2.1,0C34.1,18,34.1,18.9,33.5,19.5z"/>
	</g>
</g>
</svg>
