<?xml version="1.0" encoding="UTF-8" standalone="no"?>
<svg width="45px" height="45px" viewBox="0 0 45 45" version="1.1" xmlns="http://www.w3.org/2000/svg" xmlns:xlink="http://www.w3.org/1999/xlink">
    <!-- Generator: Sketch 3.8.2 (29753) - http://www.bohemiancoding.com/sketch -->
    <title>Shape</title>
    <desc>Created with Sketch.</desc>
    <defs></defs>
    <g id="Page-1" stroke="none" stroke-width="1" fill="none" fill-rule="evenodd">
        <g id="chrw" fill="#4286EC">
            <path d="M22.5,12 L23,12 L23,12 L42.4,12 C38.6,4.9 31.1,0 22.5,0 C15.1,0 8.6,3.5 4.5,9 L12.1,21.4 C12.6,16.1 17.1,12 22.5,12 L22.5,12 Z M22.5,31 C27.2,31 31,27.2 31,22.5 C31,17.8 27.2,14 22.5,14 C17.8,14 14,17.8 14,22.5 C14,23.6 14.2,24.6 14.6,25.6 L15,26.3 L14.9,26.3 C16.3,29.1 19.2,31 22.5,31 L22.5,31 Z M43.3,14 L28.6,14 C31.2,15.9 33,19 33,22.5 C33,24.9 32.2,27.1 30.8,28.9 L31,29 L21.1,45 L22.5,45 C34.9,45 45,34.9 45,22.5 C45,19.5 44.4,16.6 43.3,14 L43.3,14 Z M22.5,33 C18,33 14.2,30.2 12.7,26.2 L3.3,10.8 C1.2,14.2 0,18.2 0,22.5 C0,33.7 8.2,43 18.9,44.7 L26.4,32.2 C25.2,32.7 23.9,33 22.5,33 L22.5,33 Z" id="Shape"></path>
        </g>
    </g>
</svg>