<?xml version="1.0" encoding="utf-8"?>
<!-- Generator: Adobe Illustrator 18.0.0, SVG Export Plug-In . SVG Version: 6.00 Build 0)  -->
<!DOCTYPE svg PUBLIC "-//W3C//DTD SVG 1.1//EN" "http://www.w3.org/Graphics/SVG/1.1/DTD/svg11.dtd">
<svg version="1.1" id="Ebene_1" xmlns="http://www.w3.org/2000/svg" xmlns:xlink="http://www.w3.org/1999/xlink" x="0px" y="0px"
	 viewBox="0 36.5 16 16" enable-background="new 0 36.5 16 16" xml:space="preserve">
<g>
	<g>
		<path fill="#57627B" d="M8,36.5c-4.4,0-8,3.6-8,8v6.7c0,1,0.3,1.3,1.3,1.3H8c4.4,0,8-3.6,8-8S12.4,36.5,8,36.5z M11.2,43l-3.6,3.6
			c0,0,0,0,0,0.1c-0.1,0.1-0.2,0.1-0.4,0.1s-0.3,0-0.4-0.1c0,0,0,0,0-0.1l-2-2c-0.2-0.2-0.2-0.5,0-0.7s0.5-0.2,0.7,0l1.7,1.7
			l3.3-3.3c0.2-0.2,0.5-0.2,0.7,0S11.4,42.8,11.2,43z"/>
	</g>
</g>
</svg>
