<?xml version="1.0" encoding="iso-8859-1"?>
<!-- Generator: Adobe Illustrator 17.1.0, SVG Export Plug-In . SVG Version: 6.00 Build 0)  -->
<!DOCTYPE svg PUBLIC "-//W3C//DTD SVG 1.1//EN" "http://www.w3.org/Graphics/SVG/1.1/DTD/svg11.dtd">
<svg version="1.1" id="Ebene_1" xmlns="http://www.w3.org/2000/svg" xmlns:xlink="http://www.w3.org/1999/xlink" x="0px" y="0px" fill="#5a5a76"
	 width="62px" height="62px" viewBox="0 0 62 62" style="enable-background:new 0 0 62 62;" xml:space="preserve">
<g>
	<g>
		<path style="fill-rule:evenodd;clip-rule:evenodd;" d="M57.3,0c-5.8,0-15.1,0-15.1,0H4C1.8,0,0,1.8,0,4v17.7V22v18
			c0,0.1,0,0.2,0,0.3C0,48.2,0,53.2,0,57c0,2,0.7,3.9,2,4.5L2,62c0-0.2,0-0.3,0-0.5c0.6,0.3,1.2,0.3,2,0.1c9.7-1.8,17.1-9.8,18-19.7
			c0,0,0.1,0,0.1,0V42c0,0,0,0,0-0.1c10.6-1,19-9.4,20-19.9h0.1c0,0,0,0,0-0.1c9.9-0.9,18-8.3,19.7-18C62.3,1.8,60.8,0,57.3,0z
			 M59.6,6C57.3,13.2,49.3,19.9,40.4,20l0,0h-0.2c0,11-9,20-20.1,20c0,0,0,0,0,0h0c0,9.7-6.9,17.7-16.1,19.6c-1.3,0.3-1.7,0.6-2-0.6
			c0,0-0.2-7.8-0.2-18.7H2V40V22h0h0.1C2,21.3,2,20.7,2,20V6c0-3.2,0.8-4,4-4h34.2c0,0,10.1,0,16,0C58.2,2,60.9,2.5,59.6,6z"/>
	</g>
</g>
<rect x="2" y="20" style="fill-rule:evenodd;clip-rule:evenodd;" width="38" height="2"/>
<rect x="2" y="40" style="fill-rule:evenodd;clip-rule:evenodd;" width="18" height="2"/>
<g>
</g>
<g>
</g>
<g>
</g>
<g>
</g>
<g>
</g>
<g>
</g>
<g>
</g>
<g>
</g>
<g>
</g>
<g>
</g>
<g>
</g>
<g>
</g>
<g>
</g>
<g>
</g>
<g>
</g>
</svg>
