<?xml version="1.0" encoding="utf-8"?>
<!-- Generator: Adobe Illustrator 18.0.0, SVG Export Plug-In . SVG Version: 6.00 Build 0)  -->
<!DOCTYPE svg PUBLIC "-//W3C//DTD SVG 1.1//EN" "http://www.w3.org/Graphics/SVG/1.1/DTD/svg11.dtd">
<svg version="1.1" id="Ebene_1" xmlns="http://www.w3.org/2000/svg" xmlns:xlink="http://www.w3.org/1999/xlink" x="0px" y="0px"
	 viewBox="0 0 16 89" enable-background="new 0 0 16 89" xml:space="preserve">
<g>
	<g>
		<path fill-rule="evenodd" clip-rule="evenodd" fill="#1F2635" d="M14,85L14,85L14,85c0,0-2,0-2,0c-1.1,0-2-0.9-2-2V6
			c0-1.1,0.9-2,2-2h0c0,0,2,0,2,0h0c1.1,0,2-0.9,2-2c0-1.1-0.9-2-2-2h-2c-1.5,0-2.9,0.6-4,1.5C6.9,0.6,5.5,0,4,0H2C0.9,0,0,0.9,0,2
			c0,1.1,0.9,2,2,2c0,0,2,0,2,0c1.1,0,2,0.9,2,2v77c0,1.1-0.9,2-2,2c0,0-2,0-2,0v0c-1.1,0-2,0.9-2,2s0.9,2,2,2h2
			c1.5,0,2.9-0.6,4-1.5c1.1,1,2.5,1.5,4,1.5h2c1.1,0,2-0.9,2-2S15.1,85,14,85z"/>
	</g>
</g>
</svg>
