<?xml version="1.0" encoding="utf-8"?>
<!-- Generator: Adobe Illustrator 18.0.0, SVG Export Plug-In . SVG Version: 6.00 Build 0)  -->
<!DOCTYPE svg PUBLIC "-//W3C//DTD SVG 1.1//EN" "http://www.w3.org/Graphics/SVG/1.1/DTD/svg11.dtd">
<svg version="1.1" id="Ebene_1" xmlns="http://www.w3.org/2000/svg" xmlns:xlink="http://www.w3.org/1999/xlink" x="0px" y="0px"
	 viewBox="0 0 512 512" enable-background="new 0 0 512 512" xml:space="preserve">
<path id="facebook-circle-icon" fill="#4286EC" d="M256.4,50c-113.8,0-206,92.2-206,206s92.2,206,206,206s206-92.2,206-206
	S370.2,50,256.4,50z M317.4,171.2c0,0-20.6,0-28.8,0c-10.2,0-12.3,4.2-12.3,14.7c0,8.8,0,25.4,0,25.4h41.1l-4,44.6h-37.1v133.2
	h-53.2V256.4h-27.7v-45.2h27.7c0,0,0-6.5,0-35.6c0-33.4,17.8-50.8,57.4-50.8c6.5,0,36.8,0,36.8,0L317.4,171.2L317.4,171.2z"/>
</svg>
